<svg width="211" height="37" viewBox="0 0 211 37" fill="none" xmlns="http://www.w3.org/2000/svg">
<path fill-rule="evenodd" clip-rule="evenodd" d="M14.9985 2.65508C14.2419 3.15157 13.5295 3.02211 13.1621 2.30893C12.795 1.59575 13.0667 0.824177 13.8231 0.33191C14.5797 -0.160108 15.5934 -0.110161 15.902 0.515547C16.2105 1.14101 15.7586 2.16306 14.9985 2.65508ZM16.2133 3.28629C16.6944 4.01988 17.6393 4.12658 18.656 3.64226C19.6771 3.14394 20.2889 2.13266 19.8628 1.50599C19.4367 0.879105 18.0824 0.818645 17.0825 1.31718C16.0826 1.81572 15.7324 2.5527 16.2133 3.28629ZM19.0933 4.27889C18.0781 4.76409 17.7243 5.5311 18.2255 6.24796C18.7266 6.96502 19.666 7.07915 20.6643 6.60479C21.6626 6.13022 22.2902 5.08501 21.8649 4.46443C21.4395 3.84364 20.1295 3.75799 19.0933 4.27889ZM18.8208 8.21065C18.059 8.70281 17.8014 9.46218 18.1583 10.184C18.5152 10.9059 19.2403 11.0185 19.9984 10.5345C20.7563 10.0505 21.2091 9.01576 20.9036 8.38986C20.5982 7.76422 19.5788 7.71401 18.8208 8.21065ZM6.39961 32.5153C9.5308 35.0411 13.4562 36.4219 17.5072 36.4219C22.1462 36.4152 26.5934 34.6002 29.8729 31.3752C33.1524 28.1501 34.9963 23.7783 35 19.2187C34.9996 18.0924 34.5926 17.0025 33.8511 16.1433C33.1099 15.2841 32.0826 14.7113 30.9519 14.5266C29.8212 14.3419 28.6607 14.5574 27.6764 15.1347C26.6922 15.7119 25.9484 16.6137 25.5771 17.6795C25.4176 18.1781 25.3309 18.6963 25.3197 19.2187C25.2928 19.7391 25.2389 20.2577 25.1581 20.7726C24.897 22.0221 24.3242 23.1882 23.4907 24.166C22.6573 25.1438 21.5897 25.9026 20.3836 26.3741C19.1778 26.8455 17.8714 27.015 16.5824 26.8669C15.2933 26.719 14.0619 26.2583 12.9991 25.5263C11.9361 24.7944 11.075 23.8142 10.4933 22.6741C9.91171 21.5338 9.6274 20.2693 9.66661 18.9944C9.7056 17.7196 10.0668 16.474 10.7171 15.3703C11.3677 14.2665 12.2872 13.3391 13.3929 12.6713C13.6237 12.5359 13.8744 12.4154 14.1221 12.2964C14.2574 12.2314 14.3918 12.1668 14.5217 12.1004C15.1126 11.8387 15.6534 11.4794 16.1211 11.0383C16.9024 10.2553 17.3843 9.23123 17.4855 8.13935C17.5867 7.04726 17.3006 5.95452 16.6759 5.04605C16.0514 4.13737 15.1264 3.46894 14.0577 3.15378C12.9892 2.83861 11.8426 2.89609 10.8122 3.31653C7.06922 4.83896 3.97921 7.58997 2.06896 11.1009C0.158703 14.6116 -0.453736 18.6646 0.335906 22.5695C1.12555 26.4744 3.26864 29.9892 6.39961 32.5153ZM74.1563 6.89417C74.0032 6.89483 73.8543 6.94444 73.7303 7.03568C73.6064 7.12714 73.5137 7.25581 73.4655 7.40352L67.5549 25.4688H67.4708L61.5602 7.39976C61.512 7.25204 61.4193 7.12338 61.2954 7.03214C61.1714 6.94067 61.0225 6.89129 60.8694 6.89062H51.7311C51.537 6.89062 51.3513 6.9688 51.2141 7.10832C51.0769 7.24762 51 7.43674 51 7.63406V33.6911C51 33.8882 51.0769 34.0773 51.2141 34.2166C51.3513 34.3561 51.537 34.4345 51.7311 34.4345H57.2944C57.4882 34.4345 57.6742 34.3561 57.8114 34.2166C57.9484 34.0773 58.0254 33.8882 58.0254 33.6911V17.1313C58.0254 17.0808 58.0355 17.031 58.0549 16.9845C58.0745 16.9382 58.103 16.8963 58.1389 16.8616C58.1748 16.8268 58.2173 16.7998 58.2637 16.7823C58.3103 16.7648 58.3597 16.757 58.4092 16.7595C58.4895 16.7595 58.5679 16.7849 58.6335 16.8323C58.6988 16.8795 58.7482 16.9464 58.7748 17.0235L64.3309 33.9438C64.3793 34.0921 64.4725 34.2213 64.597 34.3127C64.7218 34.404 64.8717 34.4531 65.0254 34.4531H70.0003C70.154 34.4531 70.3039 34.404 70.4284 34.3127C70.5532 34.2213 70.6464 34.0921 70.6948 33.9438L76.2509 17.0235C76.2779 16.9466 76.3273 16.8802 76.3927 16.833C76.4582 16.7856 76.5362 16.7601 76.6163 16.7595C76.7132 16.7595 76.8062 16.7987 76.8748 16.8684C76.9434 16.9382 76.982 17.0325 76.982 17.1313V33.6946C76.982 33.892 77.0588 34.0811 77.196 34.2204C77.3332 34.3599 77.519 34.4381 77.713 34.4381H83.2691C83.463 34.4381 83.649 34.3599 83.7859 34.2204C83.9231 34.0811 84 33.892 84 33.6946V7.6376C84 7.44051 83.9231 7.25138 83.7859 7.11208C83.649 6.97256 83.463 6.89417 83.2691 6.89417H74.1563ZM122.319 28.0782C120.095 28.0782 118.099 26.2516 118.099 23.2763V22.9857C118.099 20.0104 120.08 18.1872 122.319 18.1872C123.051 18.1802 123.776 18.3247 124.445 18.6114C125.114 18.8982 125.71 19.3202 126.194 19.849C126.319 19.9799 126.491 20.0615 126.675 20.0782C126.859 20.0947 127.042 20.0451 127.191 19.9386L130.697 17.4265C130.779 17.3679 130.848 17.2937 130.899 17.2086C130.949 17.1235 130.982 17.0292 130.993 16.9317C131.005 16.8342 130.995 16.7354 130.966 16.6415C130.936 16.5474 130.887 16.4604 130.82 16.3856C128.742 14.0674 125.848 12.7969 122.117 12.7969H121.763C115.816 12.7969 111 17.0568 111 22.7022V23.5634C111 29.2087 115.816 33.4688 121.763 33.4688H122.117C125.855 33.4688 128.742 32.2089 130.82 29.8798C130.887 29.805 130.937 29.7177 130.967 29.6235C130.997 29.5292 131.007 29.43 130.995 29.3318C130.984 29.2339 130.951 29.1392 130.9 29.0538C130.849 28.9683 130.78 28.8941 130.697 28.8355L127.191 26.3232C127.042 26.2173 126.858 26.1682 126.674 26.1855C126.49 26.2026 126.319 26.2851 126.194 26.4166C125.71 26.9452 125.114 27.3673 124.445 27.654C123.776 27.9407 123.051 28.0855 122.319 28.0782ZM134 7.63157C134 7.43513 134.074 7.24664 134.207 7.10759C134.34 6.96876 134.52 6.89062 134.708 6.89062H146.181C152.013 6.89062 156 10.4731 156 16.1819V16.5783C156 22.3242 152.105 25.988 146.181 25.988H140.774V33.7122C140.774 33.9088 140.699 34.0973 140.566 34.2362C140.434 34.3752 140.253 34.4531 140.066 34.4531H134.708C134.52 34.4531 134.34 34.3752 134.207 34.2362C134.074 34.0973 134 33.9088 134 33.7122V7.63157ZM145.087 20.1311C147.42 20.1311 149.201 18.6492 149.201 16.467V16.3412C149.201 14.2555 147.498 12.7811 145.239 12.7811H140.774V20.1311H145.087ZM94.9548 33.4688C90.8871 33.4688 88 30.8912 88 27.5708C88 23.2043 91.609 21.3693 99.6541 21.3693H101.086C101.086 19.4022 99.8946 18.2382 97.8647 18.2382C96.3157 18.2382 94.6051 18.5703 92.4511 19.5021C92.2858 19.5723 92.0993 19.5836 91.9259 19.5338C91.7525 19.4839 91.6038 19.3762 91.5075 19.2307L89.2894 15.8461C89.2346 15.763 89.1983 15.6698 89.1828 15.5728C89.1676 15.4756 89.1737 15.3767 89.2003 15.2818C89.2272 15.1869 89.2742 15.0985 89.3387 15.0217C89.4032 14.9449 89.4836 14.8817 89.575 14.8358C92.3042 13.4802 95.3414 12.7802 98.4211 12.7972H98.9774C104.5 12.7972 108 16.0639 108 21.0909V32.1872C108 32.3765 107.921 32.5581 107.78 32.6919C107.639 32.8259 107.448 32.9012 107.248 32.9012H102.282C102.119 32.9012 101.961 32.851 101.831 32.7583C101.701 32.6658 101.606 32.5354 101.56 32.3871C101.427 31.9662 101.327 31.5365 101.259 31.1017L101.183 31.1587C99.7383 32.2315 98.0726 33.4688 94.9548 33.4688ZM100.402 25.1108C96.9399 25.1108 94.1014 25.6428 94.1014 27.3138H94.0864C94.0864 28.4705 95.3532 29.024 96.6955 29.0383C97.5158 29.0402 98.3277 28.8828 99.0814 28.5758C99.8353 28.2689 100.515 27.8188 101.079 27.253V25.1108H100.402ZM159 27.5706C159 30.891 161.887 33.4688 165.955 33.4688C169.072 33.4688 170.738 32.2313 172.183 31.1585L172.259 31.1015C172.327 31.5363 172.427 31.966 172.56 32.3869C172.606 32.5352 172.701 32.6656 172.831 32.7583C172.961 32.8508 173.119 32.901 173.282 32.901H178.248C178.447 32.901 178.639 32.8257 178.78 32.6919C178.921 32.5579 179 32.3763 179 32.187V21.0907C179 16.0638 175.5 12.7971 169.977 12.7971H169.414C166.338 12.7824 163.305 13.4822 160.579 14.8357C160.488 14.8816 160.407 14.945 160.343 15.0216C160.278 15.0984 160.231 15.1869 160.204 15.2817C160.177 15.3766 160.171 15.4757 160.187 15.5727C160.202 15.6699 160.238 15.7629 160.293 15.846L162.511 19.2306C162.608 19.3772 162.757 19.4852 162.931 19.5352C163.105 19.585 163.293 19.5733 163.459 19.502C165.609 18.5702 167.32 18.2381 168.868 18.2381C170.899 18.2381 172.09 19.4021 172.09 21.3692H170.658C162.624 21.3692 159 23.2044 159 27.5706ZM165.102 27.3137C165.102 25.6429 167.944 25.1109 171.402 25.1109H172.079V27.253C171.516 27.8197 170.836 28.2706 170.082 28.5778C169.328 28.8849 168.516 29.0415 167.695 29.0381C166.368 29.0238 165.09 28.4704 165.09 27.3137H165.102ZM192.826 13.342L189.888 25.0183C189.864 25.0938 189.819 25.1605 189.757 25.2089C189.694 25.2575 189.617 25.2855 189.537 25.2889C189.449 25.2897 189.365 25.2592 189.299 25.2029C189.232 25.1465 189.189 25.0682 189.176 24.9826L187.612 13.4169C187.591 13.2444 187.505 13.0861 187.371 12.9719C187.238 12.8577 187.066 12.7956 186.891 12.797H181.738C181.629 12.7947 181.521 12.8168 181.422 12.8613C181.323 12.9061 181.235 12.9725 181.166 13.0555C181.096 13.1385 181.046 13.2359 181.021 13.3403C180.995 13.4449 180.993 13.5538 181.016 13.6591L184.959 31.9178C184.993 32.0804 185.085 32.2262 185.216 32.3295C185.349 32.4329 185.513 32.4876 185.68 32.4842H192.112C192.267 32.4838 192.42 32.4333 192.545 32.3401C192.671 32.247 192.762 32.1162 192.805 31.9677L195.917 21.2816H196.068L199.181 31.9677C199.224 32.1162 199.314 32.247 199.441 32.3401C199.566 32.4333 199.716 32.4838 199.873 32.4842H206.29C206.458 32.4876 206.623 32.4329 206.755 32.3295C206.886 32.2262 206.978 32.0804 207.013 31.9178L210.984 13.6627C211.007 13.5574 211.005 13.4485 210.979 13.3439C210.953 13.2393 210.904 13.1419 210.835 13.0591C210.764 12.9762 210.678 12.9097 210.577 12.865C210.478 12.8202 210.37 12.7983 210.261 12.8006H205.124C204.948 12.7992 204.776 12.8613 204.644 12.9755C204.511 13.0897 204.425 13.248 204.401 13.4205L202.837 24.9862C202.827 25.0718 202.781 25.1501 202.717 25.2063C202.65 25.2628 202.564 25.2933 202.478 25.2925C202.394 25.2948 202.315 25.2693 202.248 25.2201C202.183 25.1709 202.136 25.1008 202.117 25.0217L199.159 13.342C199.12 13.1875 199.03 13.0504 198.903 12.9524C198.776 12.8541 198.619 12.8009 198.458 12.8006H193.528C193.366 12.8009 193.209 12.8541 193.082 12.9524C192.955 13.0504 192.865 13.1875 192.826 13.342Z" fill="#0D0D0D"/>
</svg>
