<?xml version="1.0" encoding="UTF-8"?>
<svg width="349px" height="450px" viewBox="0 0 349 450" version="1.1" xmlns="http://www.w3.org/2000/svg" xmlns:xlink="http://www.w3.org/1999/xlink">
    <!-- Generator: Sketch 53.1 (72631) - https://sketchapp.com -->
    <title>Setapp-Full-Color-Light-Stacked-Logo</title>
    <desc>Created with Sketch.</desc>
    <g id="Setapp-Full-Color-Light-Stacked-Logo" stroke="none" stroke-width="1" fill="none" fill-rule="evenodd">
        <g id="Group-3-Copy-3">
            <path d="M188.989119,100.301924 L223.265655,134.491141 C226.252186,137.470064 231.101489,137.470064 234.08802,134.491141 L268.364556,100.301924 C271.354896,97.323001 271.354896,92.4860512 268.364556,89.5033289 L234.08802,55.3179109 C231.101489,52.3351885 226.252186,52.3351885 223.265655,55.3179109 L188.989119,89.5033289 C186.002588,92.4860512 186.002588,97.323001 188.989119,100.301924" id="Fill-18" fill="#E6C3A5"></path>
            <path d="M170.046361,81.4074225 C173.036701,84.3901448 177.882195,84.3901448 180.872536,81.4074225 L215.149072,47.2182048 C218.135603,44.2392821 218.135603,39.4023324 215.149072,36.4234096 L180.872536,2.23419204 C177.882195,-0.744730679 173.036701,-0.744730679 170.046361,2.23419204 L135.773634,36.4234096 C132.783294,39.4023324 132.783294,44.2392821 135.773634,47.2182048 L170.046361,81.4074225 Z" id="Fill-20" fill="#E6C3A5"></path>
            <path d="M170.046361,108.39821 L135.773634,142.587428 C132.783294,145.56635 132.783294,150.4033 135.773634,153.382223 L170.046361,187.571441 C173.036701,190.554163 177.882195,190.554163 180.872536,187.571441 L215.149072,153.382223 C218.135603,150.4033 218.135603,145.56635 215.149072,142.587428 L180.872536,108.39821 C177.882195,105.419287 173.036701,105.419287 170.046361,108.39821" id="Fill-22" fill="#E6C3A5"></path>
            <path d="M116.830877,134.491141 C119.817408,137.470064 124.666711,137.470064 127.653242,134.491141 L161.929778,100.301924 C164.920118,97.323001 164.920118,92.4860512 161.929778,89.5033289 L127.653242,55.3179109 C124.666711,52.3351885 119.817408,52.3351885 116.830877,55.3179109 L82.5543405,89.5033289 C79.5678097,92.4860512 79.5678097,97.323001 82.5543405,100.301924 L116.830877,134.491141 Z" id="Fill-24" fill="#E6C3A5"></path>
            <path d="M234.087639,161.481929 C231.101108,158.499207 226.251805,158.499207 223.265274,161.481929 L188.988738,195.667347 C186.002207,198.650069 186.002207,203.483219 188.988738,206.465942 L223.265274,240.655159 C226.251805,243.634082 231.101108,243.634082 234.087639,240.655159 L268.364175,206.465942 C271.354516,203.483219 271.354516,198.650069 268.364175,195.667347 L234.087639,161.481929 Z" id="Fill-26" fill="#E6C3A5"></path>
            <path d="M180.871774,214.561848 C177.881434,211.582925 173.03594,211.582925 170.045599,214.561848 L135.772872,248.751066 C132.782532,251.729989 132.782532,256.566938 135.772872,259.545861 L170.045599,293.735079 C173.03594,296.717801 177.881434,296.717801 180.871774,293.735079 L215.14831,259.545861 C218.134841,256.566938 218.134841,251.729989 215.14831,248.751066 L180.871774,214.561848 Z" id="Fill-28" fill="#E6C3A5"></path>
            <path d="M161.929397,195.667727 L127.652861,161.482309 C124.66633,158.499587 119.817027,158.499587 116.830496,161.482309 L82.5539596,195.667727 C79.5674288,198.650449 79.5674288,203.483599 82.5539596,206.466322 L116.830496,240.655539 C119.817027,243.634462 124.66633,243.634462 127.652861,240.655539 L161.929397,206.466322 C164.919737,203.483599 164.919737,198.650449 161.929397,195.667727" id="Fill-30" fill="#E6C3A5"></path>
            <path d="M35.4246745,432.300244 C35.4246745,430.776586 35.1084985,429.431511 34.4761463,428.272619 C33.8437941,427.117526 32.9485967,426.095421 31.7867448,425.217703 C30.6248929,424.336185 29.2420986,423.568657 27.6421714,422.907518 C26.0384348,422.24638 24.2975616,421.638436 22.4157424,421.083688 C19.890143,420.350356 17.3988277,419.442241 14.9417966,418.355542 C12.4885749,417.272643 10.2981983,415.942766 8.37066691,414.377312 C6.45075423,412.808058 4.8889205,410.976629 3.70040313,408.879224 C2.50807641,406.781819 1.91381772,404.357645 1.91381772,401.599101 C1.91381772,398.844358 2.50807641,396.374588 3.70040313,394.189791 C4.8889205,392.008794 6.48122903,390.150767 8.48494743,388.627109 C10.4810471,387.099651 12.804751,385.92936 15.4484402,385.108636 C18.0959389,384.287913 20.857718,383.877551 23.7413964,383.877551 C26.823161,383.877551 29.7144581,384.352507 32.4038596,385.306218 C35.0932611,386.259929 37.4436303,387.593605 39.4587768,389.311045 C41.4701139,391.024686 43.0662318,393.076495 44.2395117,395.466472 C45.2985112,397.613272 45.8927699,399.969053 46.0222878,402.533814 C46.0451439,403.00877 45.6565901,403.403933 45.176612,403.403933 L36.2170195,403.403933 C35.7903722,403.403933 35.439912,403.080964 35.3827717,402.659203 C35.2075416,401.336926 34.8875561,400.10964 34.4304341,398.981145 C33.8895063,397.651269 33.1238268,396.499976 32.1410144,395.531066 C31.1543926,394.562156 29.9544472,393.817426 28.5449874,393.285475 C27.1317184,392.761124 25.5051257,392.495149 23.649972,392.495149 C22.0614728,392.495149 20.5910635,392.70033 19.2425534,393.114491 C17.8864246,393.524853 16.7207633,394.125197 15.7341415,394.915524 C14.7513291,395.70585 13.9780309,396.659561 13.4218657,397.772858 C12.8618912,398.889954 12.5838086,400.147637 12.5838086,401.557305 C12.5838086,403.054366 12.9647437,404.350045 13.7304231,405.451943 C14.4961026,406.550041 15.4941524,407.511351 16.728382,408.328275 C17.9626116,409.148999 19.37969,409.863332 20.9834266,410.463676 C22.5871632,411.06402 24.2518494,411.614969 25.9851039,412.112723 C28.6630773,412.906849 31.2191515,413.875759 33.6571359,415.038451 C36.0989296,416.197343 38.243594,417.588013 40.0987477,419.218061 C41.9500921,420.84051 43.4205014,422.725135 44.5061663,424.868136 C45.5956405,427.003537 46.1403777,429.454309 46.1403777,432.212852 C46.1403777,435.054987 45.5346909,437.562754 44.3309361,439.732352 C43.123372,441.89815 41.5082074,443.718181 39.4778235,445.184844 C37.451249,446.647708 35.1008798,447.757205 32.4267157,448.505735 C29.7525516,449.254266 26.9564883,449.630431 24.0499538,449.630431 C22.0767102,449.630431 20.1225134,449.436649 18.1835539,449.052884 C16.2445945,448.676719 14.3856314,448.102973 12.6066647,447.339244 C10.827698,446.579315 9.17063053,445.633203 7.64308095,444.504708 C6.11934073,443.372413 4.78606804,442.069134 3.65469092,440.591072 C2.52331381,439.10921 1.63573513,437.448765 0.988145534,435.621135 C0.424361652,434.032882 0.100566855,432.307843 0.00152374022,430.446016 C-0.0251417137,429.971061 0.371030744,429.572098 0.847199563,429.572098 L9.87916973,429.572098 C10.2867702,429.572098 10.6181837,429.883669 10.6677053,430.290231 C10.8581728,431.924079 11.2581546,433.371744 11.8752694,434.629427 C12.5838086,436.065693 13.5247182,437.262582 14.7018075,438.216293 C15.8750875,439.170004 17.2502631,439.884338 18.8235248,440.370693 C20.3967866,440.853248 22.1376598,441.092625 24.0499538,441.092625 C25.6346436,441.092625 27.116481,440.906443 28.5030846,440.522678 C29.8820695,440.138914 31.0858243,439.576566 32.1181583,438.831836 C33.1428736,438.079506 33.9504559,437.156192 34.5409052,436.058094 C35.1313546,434.959996 35.4246745,433.706113 35.4246745,432.300244 L35.4246745,432.300244 Z M99.3722423,420.072982 L73.7772159,420.072982 L73.7772159,440.169311 L103.871085,440.169311 C104.320589,440.169311 104.686286,440.537877 104.686286,440.986235 L104.686286,447.973785 C104.686286,448.425943 104.320589,448.790709 103.871085,448.790709 L63.9681383,448.790709 C63.5186349,448.790709 63.1491279,448.425943 63.1491279,447.973785 L63.1491279,385.572193 C63.1491279,385.123835 63.5186349,384.755269 63.9681383,384.755269 L103.558719,384.755269 C104.012031,384.755269 104.377729,385.123835 104.377729,385.572193 L104.377729,392.647135 C104.377729,393.099293 104.012031,393.464059 103.558719,393.464059 L73.7772159,393.464059 L73.7772159,411.538976 L99.3722423,411.538976 C99.8217457,411.538976 100.191253,411.907542 100.191253,412.3559 L100.191253,419.256058 C100.191253,419.708216 99.8217457,420.072982 99.3722423,420.072982 L99.3722423,420.072982 Z M167.711991,393.464059 L148.821422,393.464059 L148.821422,447.973785 C148.821422,448.425943 148.451915,448.790709 148.002411,448.790709 L139.099959,448.790709 C138.646647,448.790709 138.280949,448.425943 138.280949,447.973785 L138.280949,393.464059 L119.519897,393.464059 C119.070394,393.464059 118.700887,393.099293 118.700887,392.647135 L118.700887,385.572193 C118.700887,385.123835 119.070394,384.755269 119.519897,384.755269 L167.711991,384.755269 C168.161495,384.755269 168.527192,385.123835 168.527192,385.572193 L168.527192,392.647135 C168.527192,393.099293 168.161495,393.464059 167.711991,393.464059 L167.711991,393.464059 Z M214.688902,433.926492 L194.625053,433.926492 L190.389055,448.209363 C190.286203,448.551331 189.966217,448.790709 189.604329,448.790709 L180.408557,448.790709 C179.852391,448.790709 179.460028,448.251159 179.62764,447.723008 L199.950525,385.321417 C200.064806,384.983248 200.377172,384.755269 200.731442,384.755269 L208.841549,384.755269 C209.195819,384.755269 209.511995,384.987048 209.622466,385.325216 L229.560607,447.730607 C229.728218,448.251159 229.332046,448.790709 228.77969,448.790709 L219.622011,448.790709 C219.260123,448.790709 218.940138,448.551331 218.833476,448.205563 L214.688902,433.926492 Z M197.314454,424.909932 L212.041404,424.909932 L204.765544,399.798069 L197.314454,424.909932 Z M257.525049,424.252593 L257.525049,447.973785 C257.525049,448.425943 257.155542,448.790709 256.706039,448.790709 L247.757874,448.790709 C247.308371,448.790709 246.938864,448.425943 246.938864,447.973785 L246.938864,385.572193 C246.938864,385.123835 247.308371,384.755269 247.757874,384.755269 L268.412173,384.755269 C271.619646,384.785666 274.579512,385.260622 277.299388,386.183936 C280.019264,387.10725 282.362015,388.429527 284.331449,390.143168 C286.297074,391.856808 287.836052,393.939014 288.940763,396.389786 C290.041666,398.836759 290.590212,401.599101 290.590212,404.676815 C290.590212,407.670936 290.041666,410.368685 288.940763,412.770062 C287.836052,415.175238 286.297074,417.227047 284.331449,418.925489 C282.362015,420.63153 280.019264,421.931009 277.299388,422.842924 C274.579512,423.75104 271.619646,424.222196 268.412173,424.252593 L257.525049,424.252593 Z M257.525049,415.718587 L268.412173,415.718587 C270.206377,415.718587 271.810114,415.445013 273.219574,414.905463 C274.632843,414.362113 275.836597,413.605984 276.834647,412.640874 C277.836506,411.671964 278.598377,410.516871 279.131686,409.164197 C279.657376,407.819122 279.924031,406.352459 279.924031,404.768007 C279.924031,403.092362 279.657376,401.557305 279.131686,400.147637 C278.598377,398.741767 277.836506,397.53348 276.834647,396.522774 C275.836597,395.508268 274.632843,394.725541 273.219574,394.166993 C271.810114,393.608445 270.206377,393.315872 268.412173,393.285475 L257.525049,393.285475 L257.525049,415.718587 Z M315.914775,424.252593 L315.914775,447.567223 C315.914775,448.24356 315.362419,448.790709 314.688164,448.790709 L306.55901,448.790709 C305.880945,448.790709 305.332399,448.24356 305.332399,447.567223 L305.332399,385.982555 C305.332399,385.306218 305.880945,384.755269 306.55901,384.755269 L326.801898,384.755269 C330.005562,384.785666 332.969237,385.260622 335.685304,386.183936 C338.40518,387.10725 340.747931,388.429527 342.721174,390.143168 C344.690609,391.856808 346.225777,393.939014 347.326679,396.389786 C348.431391,398.836759 348.983747,401.599101 348.983747,404.676815 C348.983747,407.670936 348.431391,410.368685 347.326679,412.770062 C346.225777,415.175238 344.690609,417.227047 342.721174,418.925489 C340.747931,420.63153 338.40518,421.931009 335.685304,422.842924 C332.969237,423.75104 330.005562,424.222196 326.801898,424.252593 L315.914775,424.252593 Z M315.914775,415.718587 L326.801898,415.718587 C328.596103,415.718587 330.199839,415.445013 331.609299,414.905463 C333.018759,414.362113 334.222513,413.605984 335.224373,412.640874 C336.226232,411.671964 336.988102,410.516871 337.517602,409.164197 C338.047101,407.819122 338.313756,406.352459 338.313756,404.768007 C338.313756,403.092362 338.047101,401.557305 337.517602,400.147637 C336.988102,398.741767 336.226232,397.53348 335.224373,396.522774 C334.222513,395.508268 333.018759,394.725541 331.609299,394.166993 C330.199839,393.608445 328.596103,393.315872 326.801898,393.285475 L315.914775,393.285475 L315.914775,415.718587 Z" id="Fill-32" fill="#2E2E33"></path>
        </g>
    </g>
</svg>